<svg xmlns="http://www.w3.org/2000/svg" version="1.1" viewBox="-5.0 -10.0 110.0 135.0">
 <path d="m45.312 71.969-6.5859 11.41c-0.42969 0.74609-1.3867 1.0039-2.1328 0.57031l-3.9805-2.3008c5.7344-3.4062 9.5781-9.6602 9.5781-16.805 0-10.781-8.75-19.531-19.531-19.531-2.875 0-5.6055 0.62109-8.0625 1.7383l18.82-32.598c0.24609-0.42969 0.68359-0.71484 1.1758-0.76953l12.285-1.3945v7.4414c-1.418 0.98828-2.3438 2.6289-2.3438 4.4883 0 3.0195 2.4492 5.4688 5.4688 5.4688 3.0195 0 5.4688-2.4492 5.4688-5.4688 0-1.8555-0.92578-3.5-2.3438-4.4883v-8.1484l3.668-0.41406c0.68359-0.078125 1.3359 0.30078 1.6094 0.92969l8.9219 20.488c0.19922 0.45312 0.16797 0.97656-0.078125 1.4062l-8.5664 14.84c-7.9805 4.5859-13.363 13.195-13.363 23.051v0.09375zm-12.773-36.594 17.023 9.8281c0.74609 0.42969 1.7031 0.17578 2.1328-0.57031 0.42969-0.74609 0.17578-1.7031-0.57031-2.1328l-17.023-9.8281c-0.74609-0.42969-1.7031-0.17578-2.1328 0.57031-0.42969 0.74609-0.17578 1.7031 0.57031 2.1328zm-3.125 5.4141 17.023 9.8281c0.74609 0.42969 1.7031 0.17578 2.1328-0.57031 0.42969-0.74609 0.17578-1.7031-0.57031-2.1328l-17.023-9.8281c-0.74609-0.42969-1.7031-0.17578-2.1328 0.57031s-0.17578 1.7031 0.57031 2.1328zm32.992 6.2656 6.8672-11.898c0.10156-0.17578 0.1875-0.35547 0.26172-0.54297v10.801c-2.4883 0.21875-4.8828 0.78125-7.1289 1.6406zm-14.738 35.758h-5.9062l3.8867-6.7305c0.375 2.3633 1.0625 4.6211 2.0195 6.7305zm3.8984-59.375c0 0.86328-0.69922 1.5625-1.5625 1.5625-0.86328 0-1.5625-0.69922-1.5625-1.5625v-17.188c0-0.86328 0.69922-1.5625 1.5625-1.5625 0.86328 0 1.5625 0.69922 1.5625 1.5625zm12.605-3.9727 4.7305 3.4961c0.39844 0.29297 0.63281 0.76172 0.63281 1.2578v7.5742c-0.019531-0.050781-0.039062-0.10156-0.0625-0.14844l-5.3047-12.18zm-41.512 27.41c9.918 0 17.969 8.0508 17.969 17.969s-8.0508 17.969-17.969 17.969c-9.918 0-17.969-8.0508-17.969-17.969s8.0508-17.969 17.969-17.969zm0 4.6875c-7.332 0-13.281 5.9492-13.281 13.281s5.9492 13.281 13.281 13.281c7.332 0 13.281-5.9492 13.281-13.281s-5.9492-13.281-13.281-13.281zm0 3.125c5.6055 0 10.156 4.5508 10.156 10.156s-4.5508 10.156-10.156 10.156c-5.6055 0-10.156-4.5508-10.156-10.156s4.5508-10.156 10.156-10.156zm-1.5625 11.719v2.3438h-2.3438c-0.86328 0-1.5625 0.69922-1.5625 1.5625s0.69922 1.5625 1.5625 1.5625h2.3438v0.78125c0 0.86328 0.69922 1.5625 1.5625 1.5625 0.86328 0 1.5625-0.69922 1.5625-1.5625v-0.78125h0.78125c0.82812 0 1.625-0.32812 2.2109-0.91406 0.58594-0.58594 0.91406-1.3789 0.91406-2.2109v-2.3438c0-0.82812-0.32812-1.625-0.91406-2.2109-0.58594-0.58594-1.3789-0.91406-2.2109-0.91406h-0.78125v-2.3438h2.3438c0.86328 0 1.5625-0.69922 1.5625-1.5625s-0.69922-1.5625-1.5625-1.5625h-2.3438v-0.78125c0-0.86328-0.69922-1.5625-1.5625-1.5625-0.86328 0-1.5625 0.69922-1.5625 1.5625v0.78125h-0.78125c-0.82812 0-1.625 0.32812-2.2109 0.91406-0.58594 0.58594-0.91406 1.3789-0.91406 2.2109v2.3438c0 0.82812 0.32812 1.625 0.91406 2.2109 0.58594 0.58594 1.3789 0.91406 2.2109 0.91406zm3.125 2.3438v-2.3438h0.78125v2.3438zm-3.125-7.8125v2.3438h-0.78125v-2.3438zm50.781-12.5c12.934 0 23.438 10.504 23.438 23.438s-10.504 23.438-23.438 23.438-23.438-10.504-23.438-23.438 10.504-23.438 23.438-23.438zm7.0312 27.344v-18.75c0-0.86328-0.69922-1.5625-1.5625-1.5625h-10.938c-0.86328 0-1.5625 0.69922-1.5625 1.5625v18.75h-5.4688c-0.65234 0-1.2344 0.40234-1.4609 1.0117-0.23047 0.60938-0.054688 1.2969 0.43359 1.7266l12.5 10.938c0.58984 0.51562 1.4688 0.51562 2.0586 0l12.5-10.938c0.48828-0.42969 0.66406-1.1172 0.43359-1.7266s-0.8125-1.0117-1.4609-1.0117zm-3.125 1.5625c0 0.86328 0.69922 1.5625 1.5625 1.5625h2.8711l-8.3398 7.2969-8.3398-7.2969h2.8711c0.86328 0 1.5625-0.69922 1.5625-1.5625v-18.75h7.8125z" fill-rule="evenodd"/>
<text x="0.0" y="117.5" font-size="5.0" font-weight="bold" font-family="Arbeit Regular, Helvetica, Arial-Unicode, Arial, Sans-serif" fill="#000000">Created by Febrian Hidayat</text><text x="0.0" y="122.5" font-size="5.0" font-weight="bold" font-family="Arbeit Regular, Helvetica, Arial-Unicode, Arial, Sans-serif" fill="#000000">from Noun Project</text></svg>