<svg xmlns="http://www.w3.org/2000/svg" viewBox="0 0 34.38 29.68"><defs><style>.cls-1{fill:#fefefd;}.cls-2{fill:#fff;}.cls-3{fill:#dcc66b;}.cls-4{fill:#dd3b34;}.cls-5{fill:#ed1c24;}</style></defs><g id="Layer_2" data-name="Layer 2"><g id="Layer_5" data-name="Layer 5"><path class="cls-1" d="M27.94,16.4c-.25-1.27-.46-2.39-.71-3.51s-.26-1.14.71-1.76a1.49,1.49,0,0,0,.61-2.25c-.36-.69-.74-1.37-1.15-2a1.33,1.33,0,0,0-1.95-.48c-.67.39-1.34.8-2,1.23a1.42,1.42,0,0,0-.55,2c.59,1.23.59,1.23-.4,2.2-.07.07-.15.13-.21.2-.32.39-.53.38-.76-.12-.77-1.66-1.57-3.31-2.37-4.95A.72.72,0,0,1,19.31,6a16.85,16.85,0,0,0,1.17-1.22,1.39,1.39,0,0,0,0-2c-.69-.76-1.4-1.51-2.12-2.24a1.36,1.36,0,0,0-2.22,0c-.72.73-1.42,1.48-2.12,2.24a1.34,1.34,0,0,0,0,2,8.34,8.34,0,0,0,1,1c.49.38.45.77.2,1.27-.75,1.51-1.46,3-2.19,4.56-.37.78-.37.78-1,.17-1-1-1-1-.44-2.32a1.31,1.31,0,0,0-.43-1.81A24.72,24.72,0,0,0,8.81,6.28,1.3,1.3,0,0,0,7,6.8c-.46.75-.89,1.52-1.29,2.3A1.35,1.35,0,0,0,6.23,11a3.64,3.64,0,0,0,.63.38.82.82,0,0,1,.47,1.08c-.25,1.14-.49,2.29-.72,3.44-.07.33-.2.44-.49.23-.53-.39-1-.8-1.59-1.18-.26-.19-.25-.41-.2-.71a1.39,1.39,0,0,0-1-1.66c-1.73-.47-2.69-.28-3.06.62a1.33,1.33,0,0,0-.1.28C.13,14,0,14.55,0,15.1a1.17,1.17,0,0,0,1,1.37c1,.09,1.31.73,1.64,1.44.24.51.46,1,.65,1.55a34.14,34.14,0,0,1,1.83,8.42c.13,1.37.6,1.79,2,1.79h18c.88,0,1.77,0,2.65,0a1.39,1.39,0,0,0,1.46-1.26c.14-1.06.27-2.13.44-3.19a25.32,25.32,0,0,1,2.42-7.87c.19-.36.35-.7.88-.76,1.17-.15,1.49-.67,1.42-1.86-.13-2-.46-2.78-2.89-2.25-1.07.23-1.41.58-1.4,1.68,0,.28.08.57-.23.79C29.24,15.38,28.65,15.86,27.94,16.4Z"/><path class="cls-2" d="M27.94,16.4c.71-.54,1.3-1,1.91-1.45.31-.22.24-.51.23-.79,0-1.1.33-1.45,1.4-1.68,2.43-.53,2.76.25,2.89,2.25.07,1.19-.25,1.71-1.42,1.86-.53.06-.69.4-.88.76a25.32,25.32,0,0,0-2.42,7.87c-.17,1.06-.3,2.13-.44,3.19a1.39,1.39,0,0,1-1.46,1.26c-.88,0-1.77,0-2.65,0h-18c-1.36,0-1.83-.42-2-1.79a34.14,34.14,0,0,0-1.83-8.42c-.19-.52-.41-1-.65-1.55C2.35,17.2,2,16.56,1,16.47A1.17,1.17,0,0,1,0,15.1c0-.55.13-1.11.2-1.66a1.33,1.33,0,0,1,.1-.28c.37-.9,1.33-1.09,3.06-.62a1.39,1.39,0,0,1,1,1.66c0,.3-.06.52.2.71.54.38,1.06.79,1.59,1.18.29.21.42.1.49-.23.23-1.15.47-2.3.72-3.44a.82.82,0,0,0-.47-1.08A3.64,3.64,0,0,1,6.23,11,1.35,1.35,0,0,1,5.75,9.1c.4-.78.83-1.55,1.29-2.3a1.3,1.3,0,0,1,1.77-.52,24.72,24.72,0,0,1,2.31,1.43,1.31,1.31,0,0,1,.43,1.81C11,10.81,11,10.81,12,11.84c.62.61.62.61,1-.17.73-1.52,1.44-3.05,2.19-4.56.25-.5.29-.89-.2-1.27a8.34,8.34,0,0,1-1-1,1.34,1.34,0,0,1,0-2c.7-.76,1.4-1.51,2.12-2.24a1.36,1.36,0,0,1,2.22,0c.72.73,1.43,1.48,2.12,2.24a1.39,1.39,0,0,1,0,2A16.85,16.85,0,0,1,19.31,6a.72.72,0,0,0-.14.93c.8,1.64,1.6,3.29,2.37,5,.23.5.44.51.76.12.06-.07.14-.13.21-.2,1-1,1-1,.4-2.2a1.42,1.42,0,0,1,.55-2c.65-.43,1.32-.84,2-1.23a1.33,1.33,0,0,1,1.95.48c.41.67.79,1.35,1.15,2a1.49,1.49,0,0,1-.61,2.25c-1,.62-1,.61-.71,1.76S27.69,15.13,27.94,16.4Zm3.32-.66.08-.07h-.05l0,.06-.17.12-4,2.93a1.79,1.79,0,0,1-.15-.39q-.63-3-1.23-6c-.27-1.35-.26-1.35.9-2.08.83-.54.83-.54.38-1.38-.72-1.37-.7-1.34-2-.6-.63.35-.93.67-.39,1.33.2.24.3.56.48.82a.67.67,0,0,1-.12,1c-1,.92-1.95,1.86-2.87,2.83-.46.48-.68.46-1-.15q-1.77-3.78-3.6-7.54a.62.62,0,0,1,.14-.83c.54-.54,1-1.11,1.56-1.65.21-.22.24-.38,0-.61q-.84-.85-1.65-1.77c-.22-.24-.37-.22-.58,0-.54.57-1.09,1.13-1.64,1.68a.42.42,0,0,0,0,.68c.55.56,1.07,1.15,1.61,1.71a.48.48,0,0,1,.13.64q-1.88,3.9-3.7,7.81c-.23.48-.42.5-.78.13-.94-1-1.88-1.93-2.87-2.84a.87.87,0,0,1-.16-1.31C10.39,8.84,10.35,8.84,9,8c-.54-.34-.82-.34-1.14.31-.76,1.51-.81,1.51.63,2.37a.84.84,0,0,1,.49,1c-.5,2.35-1,4.71-1.5,7.2L3.31,15.76c0,.23,0,.29,0,.32A30.48,30.48,0,0,1,6.58,27.77c0,.48.3.47.64.47,6.67,0,13.35,0,20,0,.49,0,.6-.17.65-.63A39.29,39.29,0,0,1,29.42,20a30.74,30.74,0,0,1,1.74-4.1Zm.85-.42c.27-.17.92.14.85-.53,0-.35.22-1-.43-1-.31,0-1-.23-1,.44C31.53,14.56,31.23,15.27,32.11,15.32ZM1.49,14.49c-.16.79.34.76.77.8.79.08.59-.56.64-.94.12-.83-.63-.52-1-.58C1.3,13.66,1.59,14.29,1.49,14.49Z"/><path class="cls-3" d="M31.16,15.93A30.74,30.74,0,0,0,29.42,20a39.29,39.29,0,0,0-1.53,7.59c-.05.46-.16.63-.65.63-6.67,0-13.35,0-20,0-.34,0-.59,0-.64-.47A30.48,30.48,0,0,0,3.31,16.08s0-.09,0-.32l4.12,3.09c.51-2.49,1-4.85,1.5-7.2a.84.84,0,0,0-.49-1C7,9.78,7.05,9.78,7.81,8.27c.32-.65.6-.65,1.14-.31,1.4.88,1.44.88.57,2.31a.87.87,0,0,0,.16,1.31c1,.91,1.93,1.87,2.87,2.84.36.37.55.35.78-.13q1.83-3.91,3.7-7.81a.48.48,0,0,0-.13-.64c-.54-.56-1.06-1.15-1.61-1.71a.42.42,0,0,1,0-.68c.55-.55,1.1-1.11,1.64-1.68.21-.23.36-.25.58,0q.81.92,1.65,1.77c.23.23.2.39,0,.61-.53.54-1,1.11-1.56,1.65a.62.62,0,0,0-.14.83q1.83,3.77,3.6,7.54c.28.61.5.63,1,.15.92-1,1.89-1.91,2.87-2.83a.67.67,0,0,0,.12-1c-.18-.26-.28-.58-.48-.82-.54-.66-.24-1,.39-1.33,1.34-.74,1.32-.77,2,.6.45.84.45.84-.38,1.38-1.16.73-1.17.73-.9,2.08q.6,3,1.23,6a1.79,1.79,0,0,0,.15.39l4-2.93Z"/><path class="cls-3" d="M32.11,15.32c-.88-.05-.58-.76-.59-1.11,0-.67.7-.43,1-.44.65,0,.4.67.43,1C33,15.46,32.38,15.15,32.11,15.32Z"/><path class="cls-3" d="M1.49,14.49c.1-.2-.19-.83.45-.72.33.06,1.08-.25,1,.58,0,.38.15,1-.64.94C1.83,15.25,1.33,15.28,1.49,14.49Z"/><path class="cls-4" d="M31.26,15.74l0-.06h.05l-.08.07Z"/><path class="cls-4" d="M31.26,15.74a1.74,1.74,0,0,1-.1.19l-.07-.07.17-.12Z"/><path class="cls-5" d="M14.68,15.43h2.73v4.79a7.5,7.5,0,0,1-.27,2.3,2.64,2.64,0,0,1-1.08,1.33A3.58,3.58,0,0,1,14,24.4,4.81,4.81,0,0,1,11.92,24,2.52,2.52,0,0,1,10.79,23a3.91,3.91,0,0,1-.48-1.71l2.61-.36a3,3,0,0,0,.1.87,1,1,0,0,0,.33.46.77.77,0,0,0,.44.11.72.72,0,0,0,.67-.34,2.28,2.28,0,0,0,.22-1.14Z"/><path class="cls-5" d="M14.67,18.49H17.4v3.34l2.85-3.34h3.63l-3.22,3.33L24,27.31H20.67l-1.86-3.62L17.4,25.16v2.15H14.67Z"/></g></g></svg>