<svg width="978" height="634" viewBox="0 0 978 634" fill="none" xmlns="http://www.w3.org/2000/svg">
<path d="M340.643 584.785C331.326 418.151 322.124 253.568 312.922 88.9855C312.091 89.0223 311.26 89.0591 310.429 89.096C312.532 154.042 317.085 218.99 320.715 283.868C324.339 348.656 328.032 413.439 331.683 478.225C333.677 513.603 335.664 548.981 337.655 584.359C260.335 563.715 184.244 541.871 107.042 522.004C92.7676 385.988 78.4956 249.993 64.1482 113.28C49.0436 115.185 39.3574 109.299 36.5797 93.7985C27.8625 92.9497 19.599 92.145 11.3354 91.3403C11.3289 91.0628 11.3224 90.7853 11.3159 90.5078L291.05 74.6921L977.248 104.439L977.284 118.998C977.284 118.998 954.448 120.13 943.332 120.682C940.797 123.25 942.636 126.83 940.463 129.59C936.084 131.005 931.186 129.462 925.504 130.652C911.116 254.086 896.717 377.603 882.132 502.722C702.539 532.289 521.959 556.702 340.643 584.785ZM138.22 333.31C179.188 339.16 219.255 344.882 260.934 350.833C245.485 319.264 230.827 289.311 215.672 258.341C208.825 268.796 205.189 279.79 198.917 290.035C191.809 277.573 186.737 265.019 178.84 252.462C164.181 279.444 151.848 306.143 138.22 333.31ZM222.649 212.88C203.281 211.812 184.437 210.29 165.198 210.286C159.197 223.14 153.362 235.641 147.1 249.055C152.847 249.151 157.138 249.886 161.771 248.802C164.911 242.231 168.07 235.621 171.408 228.635C186.433 229.554 201.112 230.451 215.67 231.341C221.379 239.315 224.199 248.4 229.241 256.494C233.68 256.104 237.952 257.607 242.668 255.867C235.928 241.394 229.386 227.345 222.649 212.88ZM776.679 500.268C780.362 495.012 780.526 125.679 776.679 119.691C776.679 247.088 776.679 373.215 776.679 500.268ZM452.35 108.114C451.355 108.132 450.36 108.151 449.365 108.169C452.643 253.516 456.397 398.852 460.271 544.184C461.25 544.159 462.229 544.135 463.208 544.111C459.589 398.778 455.969 253.446 452.35 108.114ZM847.643 488.765C848.665 488.805 849.687 488.846 850.709 488.886C856.495 367.316 862.281 245.746 868.067 124.175C867.056 124.127 866.045 124.078 865.034 124.03C859.237 245.608 853.44 367.186 847.643 488.765ZM553.261 531.299C553.78 531.299 554.298 531.298 554.817 531.298C554.817 392.679 554.817 254.059 554.817 115.44C554.298 115.441 553.78 115.441 553.261 115.441C553.261 254.061 553.261 392.68 553.261 531.299ZM672.357 116.633C671.581 116.645 670.805 116.657 670.03 116.669C669.984 249.396 669.823 382.124 670.124 514.851C670.868 514.85 671.612 514.848 672.357 514.846C672.357 382.109 672.357 249.371 672.357 116.633Z" fill="black"/>
<path d="M926.994 55.1636C927.031 59.3299 926.657 63.4043 926.261 67.3923C869.994 67.3923 813.556 62.7347 757.368 59.7519C699.926 56.7026 642.493 53.5219 585.061 50.3C527.496 47.0707 469.927 43.9253 412.356 40.8053C383.721 39.2533 355.082 37.7422 326.452 36.0902C312.573 35.2893 298.614 33.7825 284.711 34.6479C270.844 35.511 256.997 37.1017 243.139 38.1599C210.5 40.6523 177.871 43.262 145.239 45.8495C129.333 47.1107 113.426 48.3669 97.5201 49.6326C89.8805 50.2406 82.2408 50.8485 74.6009 51.4523C67.8028 51.9896 55.9615 55.1713 49.4367 52.594C47.7365 42.6912 53.3051 32.3113 60.5692 25.9146C69.7916 17.7934 82.4347 17.5485 94.096 16.523C123.903 13.9017 153.66 10.7268 183.475 8.18814C213.51 5.63077 243.546 0.674686 273.709 0.0685307C303.776 -0.535672 333.975 2.9899 363.91 5.35266C483.523 14.7934 603.392 21.3296 723.077 29.8312C787.399 34.4002 851.731 38.7881 916.044 43.4846C922.176 43.9323 926.94 49.0159 926.994 55.1636Z" fill="black"/>
<path d="M977.254 73.522C977.254 83.0093 977.254 91.3004 977.254 100.676C750.263 91.0823 523.806 81.7842 296.348 71.0889C295.159 59.6478 295.16 48.6105 295.811 36.9929C523.743 49.5354 750.214 62.2715 977.254 73.522Z" fill="black"/>
<path d="M0 88.596C0 78.404 0 69.4915 0 59.8464C97.3673 52.2398 194.403 44.6592 291.96 37.0378C292.793 48.562 292.503 59.2522 292.11 70.9682C194.788 76.8412 97.773 82.6958 0 88.596Z" fill="black"/>
<path d="M307.945 578.705C326.913 585.951 346.267 589.677 365.648 582.762C381.63 604.16 365.184 634.511 334.744 633.807C308.765 632.427 292.968 600.001 307.945 578.705Z" fill="black"/>
<path d="M126.754 529.759C144.546 534.567 162.214 539.342 179.638 544.051C184.114 564.775 163.06 583.329 143.098 577.939C123.26 572.583 112.809 546.114 126.754 529.759Z" fill="black"/>
<path d="M798.975 519.337C815.071 516.578 831.445 513.77 847.694 510.984C853.693 526.304 843.887 545.115 827.518 548.231C811.105 551.356 796.45 535.472 798.975 519.337Z" fill="black"/>
</svg>
